<svg width="32" height="32" viewBox="0 0 32 32" fill="none" xmlns="http://www.w3.org/2000/svg">
<path d="M16 0C7.16426 0 0 7.16333 0 16C0 24.8367 7.16426 32 16 32C24.8376 32 32 24.8367 32 16C32 7.16333 24.8376 0 16 0ZM11.2051 16.299C10.9604 16.299 10.7165 16.2046 10.5296 16.0178L9.1478 14.6368L7.76596 16.0178C7.58003 16.2046 7.33524 16.299 7.09045 16.299C6.84566 16.299 6.60181 16.2046 6.41308 16.0178L5.31434 14.9181C4.94061 14.5453 4.94061 13.9399 5.31434 13.5671L6.69617 12.1852L5.31434 10.8043C4.94061 10.4315 4.94061 9.8261 5.31434 9.45238L6.41308 8.3527C6.7868 7.97991 7.39317 7.97991 7.76502 8.3527L9.14686 9.73547L10.5287 8.35363C10.9006 7.98085 11.5069 7.98085 11.8806 8.35363L12.9794 9.45331C13.3531 9.8261 13.3531 10.4315 12.9794 10.8053L11.5994 12.1862L12.9794 13.568C13.3531 13.9408 13.3531 14.5462 12.9794 14.919L11.8806 16.0187C11.6938 16.2055 11.449 16.299 11.2051 16.299ZM16 25.2459C14.2463 25.2459 12.8271 23.8248 12.8271 22.073C12.8271 20.3212 14.2472 18.9001 16 18.9001C17.7518 18.9001 19.1729 20.3212 19.1729 22.073C19.1729 23.8248 17.7518 25.2459 16 25.2459ZM26.6847 13.5671C27.0566 13.9399 27.0566 14.5453 26.6847 14.9181L25.5841 16.0187C25.3982 16.2046 25.1534 16.298 24.9086 16.298C24.6638 16.298 24.4181 16.2046 24.2312 16.0187L22.8494 14.6368L21.4685 16.0187C21.2807 16.2046 21.0359 16.298 20.7902 16.298C20.5454 16.298 20.3025 16.2046 20.1138 16.0187L19.0131 14.9181C18.6404 14.5453 18.6404 13.9399 19.0131 13.5671L20.395 12.1852L19.0131 10.8043C18.6404 10.4315 18.6404 9.8261 19.0131 9.45238L20.1138 8.3527C20.4856 7.97991 21.0929 7.97991 21.4657 8.3527L22.8466 9.73454L24.2284 8.3527C24.6012 7.97991 25.2067 7.97991 25.5794 8.3527L26.681 9.45238C27.0519 9.82517 27.0519 10.4306 26.681 10.8043L25.2992 12.1852L26.6847 13.5671Z" fill="#EBEDF0"/>
</svg>
