<svg width="800" height="800" viewBox="0 0 800 800" fill="none" xmlns="http://www.w3.org/2000/svg">
<path d="M400 0C179.107 0 0 179.083 0 400C0 620.917 179.107 800 400 800C620.94 800 800 620.917 800 400C800 179.083 620.94 0 400 0ZM280.128 407.474C274.009 407.474 267.912 405.115 263.241 400.444L228.695 365.921L194.149 400.444C189.501 405.115 183.381 407.474 177.261 407.474C171.142 407.474 165.045 405.115 160.327 400.444L132.858 372.952C123.515 363.632 123.515 348.496 132.858 339.177L167.404 304.631L132.858 270.108C123.515 260.788 123.515 245.653 132.858 236.309L160.327 208.818C169.67 199.498 184.829 199.498 194.126 208.818L228.672 243.387L263.218 208.841C272.514 199.521 287.673 199.521 297.016 208.841L324.485 236.333C333.828 245.653 333.828 260.788 324.485 270.131L289.985 304.654L324.485 339.2C333.828 348.52 333.828 363.655 324.485 372.975L297.016 400.467C292.345 405.139 286.225 407.474 280.128 407.474ZM400 631.147C356.158 631.147 320.677 595.62 320.677 551.825C320.677 508.029 356.181 472.502 400 472.502C443.796 472.502 479.323 508.029 479.323 551.825C479.323 595.62 443.796 631.147 400 631.147ZM667.118 339.177C676.415 348.496 676.415 363.632 667.118 372.952L639.603 400.467C634.955 405.115 628.835 407.451 622.715 407.451C616.596 407.451 610.453 405.115 605.781 400.467L571.235 365.921L536.712 400.467C532.018 405.115 525.898 407.451 519.755 407.451C513.635 407.451 507.562 405.115 502.844 400.467L475.328 372.952C466.009 363.632 466.009 348.496 475.328 339.177L509.874 304.631L475.328 270.108C466.009 260.788 466.009 245.653 475.328 236.309L502.844 208.818C512.14 199.498 527.323 199.498 536.642 208.818L571.165 243.363L605.711 208.818C615.031 199.498 630.166 199.498 639.486 208.818L667.025 236.309C676.298 245.629 676.298 260.765 667.025 270.108L632.479 304.631L667.118 339.177Z" fill="#EBEDF0"/>
</svg>
