<svg width="500" height="667" viewBox="0 0 500 667" fill="none" xmlns="http://www.w3.org/2000/svg">
<path opacity="0.4" d="M500 250V416.667C500 554.333 387.667 666.667 250 666.667C112.333 666.667 0 554.333 0 416.667V250C0 181.333 28 118.667 73.3333 73.3333C113 33.6667 166 7.33333 225 1.33333C233 0.333332 241.667 0 250 0C258.333 0 267 0.333332 275 1.33333C401 14 500 120.667 500 250Z" fill="url(#paint0_linear_53_5)"/>
<path d="M312.303 183.333V250C312.303 284.333 284.303 312.667 249.97 312.667C215.303 312.667 187.303 284.333 187.303 250V183.333C187.303 157.667 202.97 135.667 224.97 126V1.33333C232.97 0.333332 241.637 0 249.97 0C258.303 0 266.97 0.333332 274.97 1.33333V126C296.97 135.667 312.303 157.667 312.303 183.333Z" fill="#181B1E"/>
<g filter="url(#filter0_d_53_5)">
<ellipse cx="108.5" cy="170" rx="42.5" ry="95" fill="#EBEDF0"/>
</g>
<defs>
<filter id="filter0_d_53_5" x="54" y="63" width="113" height="218" filterUnits="userSpaceOnUse" color-interpolation-filters="sRGB">
<feFlood flood-opacity="0" result="BackgroundImageFix"/>
<feColorMatrix in="SourceAlpha" type="matrix" values="0 0 0 0 0 0 0 0 0 0 0 0 0 0 0 0 0 0 127 0" result="hardAlpha"/>
<feOffset dx="2" dy="2"/>
<feGaussianBlur stdDeviation="7"/>
<feComposite in2="hardAlpha" operator="out"/>
<feColorMatrix type="matrix" values="0 0 0 0 0 0 0 0 0 0 0 0 0 0 0 0 0 0 0.5 0"/>
<feBlend mode="normal" in2="BackgroundImageFix" result="effect1_dropShadow_53_5"/>
<feBlend mode="normal" in="SourceGraphic" in2="effect1_dropShadow_53_5" result="shape"/>
</filter>
<linearGradient id="paint0_linear_53_5" x1="250" y1="0" x2="250" y2="666.667" gradientUnits="userSpaceOnUse">
<stop stop-color="white"/>
<stop offset="0.22123" stop-color="white" stop-opacity="0.77877"/>
<stop offset="1" stop-color="white" stop-opacity="0"/>
</linearGradient>
</defs>
</svg>
