<svg width="40" height="40" viewBox="0 0 40 40" fill="none" xmlns="http://www.w3.org/2000/svg">
<path d="M2.7027 20H0C0.000364761 15.8475 1.29302 11.798 3.69863 8.41345C6.10424 5.02887 9.50352 2.47697 13.4249 1.1118C17.3462 -0.253362 21.5952 -0.364108 25.5823 0.794928C29.5695 1.95397 33.0971 4.32532 35.6757 7.57999V4.59324H38.3784V14.0535H28.9189V11.3506H34.9793C33.4597 8.72222 31.2759 6.53956 28.6468 5.02147C26.0178 3.50338 23.0358 2.70321 20 2.70118C10.4622 2.70118 2.7027 10.4613 2.7027 20ZM37.2973 20C37.2973 29.5387 29.5378 37.2988 20 37.2988C16.9642 37.2968 13.9822 36.4966 11.3532 34.9785C8.72409 33.4604 6.54029 31.2778 5.02072 28.6494H11.0811V25.9465H1.62162V35.4068H4.32432V32.42C6.90295 35.6747 10.4305 38.046 14.4177 39.2051C18.4048 40.3641 22.6538 40.2534 26.5751 38.8882C30.4965 37.523 33.8958 34.9711 36.3014 31.5866C38.707 28.202 39.9996 24.1525 40 20H37.2973Z" fill="#EBEDF0"/>
</svg>
